<svg width="1107" height="295" viewBox="0 0 1107 295" fill="none" xmlns="http://www.w3.org/2000/svg">
<path d="M10.5361 85.8733V212.158C57.9626 212.158 96.4094 173.711 96.4094 126.284V0C48.9829 0 10.5361 38.4468 10.5361 85.8733Z" fill="#8C30F5"/>
<path d="M288.943 204.075V77.7911C241.516 77.7911 203.069 116.238 203.069 163.664V289.949C250.496 289.949 288.943 251.502 288.943 204.075Z" fill="#0066FF"/>
<circle cx="159" cy="44" r="44" fill="#FE9A22"/>
<circle cx="148" cy="140" r="44" fill="#FF00E5"/>
<path d="M359.031 93.9091H395.892L421.247 155.699H422.526L447.881 93.9091H484.741V203H455.764V139.932H454.912L430.622 202.148H413.151L388.861 139.506H388.009V203H359.031V93.9091ZM538.408 204.491C529.672 204.491 522.144 202.822 515.823 199.484C509.537 196.111 504.69 191.281 501.281 184.996C497.907 178.675 496.221 171.111 496.221 162.304C496.221 153.852 497.925 146.466 501.334 140.145C504.743 133.824 509.555 128.906 515.77 125.39C521.984 121.874 529.317 120.116 537.769 120.116C543.948 120.116 549.541 121.075 554.548 122.993C559.555 124.911 563.834 127.698 567.385 131.356C570.936 134.978 573.671 139.381 575.588 144.566C577.506 149.751 578.465 155.592 578.465 162.091V168.909H505.382V152.716H551.405C551.37 150.372 550.766 148.312 549.594 146.537C548.458 144.726 546.913 143.323 544.96 142.329C543.042 141.299 540.858 140.784 538.408 140.784C536.029 140.784 533.845 141.299 531.856 142.329C529.868 143.323 528.27 144.708 527.062 146.484C525.89 148.259 525.269 150.337 525.198 152.716V170.188C525.198 172.815 525.748 175.159 526.849 177.219C527.95 179.278 529.53 180.894 531.59 182.066C533.65 183.238 536.135 183.824 539.047 183.824C541.071 183.824 542.918 183.54 544.587 182.972C546.292 182.403 547.748 181.587 548.955 180.521C550.162 179.42 551.05 178.107 551.618 176.58H578.465C577.542 182.261 575.358 187.197 571.913 191.388C568.468 195.543 563.905 198.774 558.223 201.082C552.577 203.355 545.972 204.491 538.408 204.491ZM629.668 204.491C620.932 204.491 613.404 202.822 607.083 199.484C600.797 196.111 595.95 191.281 592.541 184.996C589.167 178.675 587.48 171.111 587.48 162.304C587.48 153.852 589.185 146.466 592.594 140.145C596.003 133.824 600.815 128.906 607.029 125.39C613.244 121.874 620.577 120.116 629.029 120.116C635.208 120.116 640.801 121.075 645.808 122.993C650.815 124.911 655.094 127.698 658.645 131.356C662.196 134.978 664.931 139.381 666.848 144.566C668.766 149.751 669.725 155.592 669.725 162.091V168.909H596.642V152.716H642.665C642.629 150.372 642.026 148.312 640.854 146.537C639.718 144.726 638.173 143.323 636.22 142.329C634.302 141.299 632.118 140.784 629.668 140.784C627.289 140.784 625.105 141.299 623.116 142.329C621.127 143.323 619.529 144.708 618.322 146.484C617.15 148.259 616.529 150.337 616.458 152.716V170.188C616.458 172.815 617.008 175.159 618.109 177.219C619.21 179.278 620.79 180.894 622.85 182.066C624.909 183.238 627.395 183.824 630.307 183.824C632.331 183.824 634.178 183.54 635.847 182.972C637.551 182.403 639.007 181.587 640.215 180.521C641.422 179.42 642.31 178.107 642.878 176.58H669.725C668.801 182.261 666.617 187.197 663.173 191.388C659.728 195.543 655.165 198.774 649.483 201.082C643.837 203.355 637.232 204.491 629.668 204.491ZM730.516 121.182V142.489H676.609V121.182H730.516ZM687.05 101.58H716.453V176.686C716.453 177.822 716.648 178.781 717.039 179.562C717.43 180.308 718.033 180.876 718.85 181.267C719.667 181.622 720.714 181.8 721.993 181.8C722.881 181.8 723.911 181.693 725.082 181.48C726.29 181.267 727.178 181.089 727.746 180.947L732.007 201.615C730.693 202.006 728.811 202.485 726.361 203.053C723.946 203.621 721.07 203.994 717.732 204.172C710.984 204.527 705.32 203.835 700.739 202.094C696.158 200.319 692.714 197.531 690.406 193.732C688.097 189.932 686.979 185.173 687.05 179.456V101.58ZM767.496 93.9091H800.522L821.829 138.227H822.681L843.988 93.9091H877.013L836.957 168.696V203H807.553V168.696L767.496 93.9091ZM890.703 204.278C885.483 204.278 880.866 203.426 876.854 201.722C872.876 199.982 869.751 197.354 867.479 193.838C865.206 190.322 864.069 185.848 864.069 180.415C864.069 175.94 864.833 172.123 866.36 168.962C867.887 165.766 870.018 163.156 872.752 161.132C875.486 159.108 878.665 157.563 882.287 156.498C885.944 155.433 889.886 154.74 894.112 154.42C898.693 154.065 902.368 153.639 905.138 153.142C907.944 152.609 909.968 151.881 911.211 150.958C912.454 149.999 913.075 148.739 913.075 147.176V146.963C913.075 144.832 912.258 143.199 910.625 142.062C908.991 140.926 906.896 140.358 904.339 140.358C901.534 140.358 899.243 140.979 897.468 142.222C895.728 143.43 894.68 145.294 894.325 147.815H867.265C867.621 142.844 869.201 138.263 872.006 134.072C874.847 129.847 878.984 126.473 884.417 123.952C889.851 121.395 896.633 120.116 904.765 120.116C910.625 120.116 915.881 120.809 920.532 122.194C925.184 123.543 929.144 125.443 932.411 127.893C935.678 130.308 938.164 133.149 939.868 136.416C941.608 139.648 942.479 143.163 942.479 146.963V203H914.993V191.494H914.354C912.72 194.548 910.731 197.016 908.388 198.898C906.079 200.781 903.434 202.148 900.451 203C897.503 203.852 894.254 204.278 890.703 204.278ZM900.291 185.741C902.528 185.741 904.623 185.28 906.577 184.357C908.565 183.433 910.181 182.102 911.424 180.362C912.667 178.621 913.288 176.509 913.288 174.023V167.205C912.507 167.524 911.672 167.826 910.785 168.11C909.932 168.394 909.009 168.661 908.015 168.909C907.056 169.158 906.026 169.388 904.925 169.602C903.86 169.815 902.741 170.01 901.569 170.188C899.297 170.543 897.432 171.129 895.976 171.945C894.556 172.727 893.491 173.703 892.78 174.875C892.106 176.011 891.768 177.29 891.768 178.71C891.768 180.983 892.567 182.723 894.165 183.93C895.763 185.138 897.805 185.741 900.291 185.741ZM956.528 203V121.182H985.079V136.736H985.931C987.423 130.983 989.784 126.775 993.016 124.112C996.283 121.448 1000.1 120.116 1004.47 120.116C1005.75 120.116 1007.01 120.223 1008.25 120.436C1009.53 120.614 1010.75 120.88 1011.93 121.235V146.324C1010.47 145.827 1008.68 145.454 1006.55 145.205C1004.41 144.957 1002.59 144.832 1001.06 144.832C998.183 144.832 995.59 145.489 993.282 146.803C991.009 148.082 989.216 149.893 987.902 152.237C986.588 154.545 985.931 157.261 985.931 160.386V203H956.528ZM1046.5 204.065C1040.67 204.065 1035.31 202.538 1030.41 199.484C1025.54 196.43 1021.64 191.796 1018.69 185.582C1015.78 179.367 1014.32 171.537 1014.32 162.091C1014.32 152.219 1015.85 144.193 1018.9 138.014C1021.99 131.835 1025.97 127.308 1030.84 124.431C1035.74 121.555 1040.88 120.116 1046.28 120.116C1050.33 120.116 1053.88 120.827 1056.94 122.247C1059.99 123.632 1062.55 125.496 1064.61 127.84C1066.67 130.148 1068.23 132.687 1069.29 135.457H1069.72V93.9091H1099.12V203H1069.93V189.577H1069.29C1068.16 192.347 1066.52 194.832 1064.39 197.034C1062.3 199.2 1059.74 200.923 1056.72 202.201C1053.74 203.444 1050.33 204.065 1046.5 204.065ZM1057.36 181.48C1060.06 181.48 1062.37 180.699 1064.29 179.136C1066.24 177.538 1067.73 175.301 1068.76 172.425C1069.83 169.513 1070.36 166.068 1070.36 162.091C1070.36 158.043 1069.83 154.58 1068.76 151.704C1067.73 148.792 1066.24 146.572 1064.29 145.045C1062.37 143.483 1060.06 142.702 1057.36 142.702C1054.66 142.702 1052.36 143.483 1050.44 145.045C1048.56 146.572 1047.1 148.792 1046.07 151.704C1045.08 154.58 1044.58 158.043 1044.58 162.091C1044.58 166.139 1045.08 169.619 1046.07 172.531C1047.1 175.408 1048.56 177.627 1050.44 179.19C1052.36 180.717 1054.66 181.48 1057.36 181.48Z" fill="black"/>
</svg>
